HIERARCHY
ROOT pelvis
{
	OFFSET 0.003123 -0.012037 -0.351407
	CHANNELS 6 Xposition Yposition Zposition Zrotation Yrotation Xrotation 
	JOINT left_hip
	{
		OFFSET 0.058189 0.026001 -0.092763
		CHANNELS 3 Zrotation Yrotation Xrotation
		JOINT left_knee
		{
			OFFSET 0.054695 0.009396 -0.378753
			CHANNELS 3 Zrotation Yrotation Xrotation
			JOINT left_ankle
			{
				OFFSET -0.043453 0.031876 -0.403060
				CHANNELS 3 Zrotation Yrotation Xrotation
				JOINT left_foot
				{
					OFFSET 0.047257 -0.118216 -0.057997
					CHANNELS 3 Zrotation Yrotation Xrotation
					End Site
					{
						OFFSET 0.000000 0.000000 0.000000
					}
				}
			}
		}
	}
	JOINT right_hip
	{
		OFFSET -0.063267 0.021250 -0.103908
		CHANNELS 3 Zrotation Yrotation Xrotation
		JOINT right_knee
		{
			OFFSET -0.044210 0.016824 -0.362380
			CHANNELS 3 Zrotation Yrotation Xrotation
			JOINT right_ankle
			{
				OFFSET 0.015417 0.020192 -0.410728
				CHANNELS 3 Zrotation Yrotation Xrotation
				JOINT right_foot
				{
					OFFSET -0.038812 -0.119049 -0.058328
					CHANNELS 3 Zrotation Yrotation Xrotation
					End Site
					{
						OFFSET 0.000000 0.000000 0.000000
					}
				}
			}
		}
	}
	JOINT spine1
	{
		OFFSET -0.002763 0.027618 0.109891
		CHANNELS 3 Zrotation Yrotation Xrotation
		JOINT spine2
		{
			OFFSET 0.009448 0.005940 0.131853
			CHANNELS 3 Zrotation Yrotation Xrotation
			JOINT spine3
			{
				OFFSET -0.011330 -0.028447 0.052235
				CHANNELS 3 Zrotation Yrotation Xrotation
				JOINT neck
				{
					OFFSET -0.012164 0.031615 0.165167
					CHANNELS 3 Zrotation Yrotation Xrotation
					JOINT head
					{
						OFFSET 0.024783 -0.020737 0.160452
						CHANNELS 3 Zrotation Yrotation Xrotation
						End Site
						{
							OFFSET 0.000000 0.000000 0.000000
						}
					}
				}
				JOINT left_collar
				{
					OFFSET 0.046364 0.007220 0.084944
					CHANNELS 3 Zrotation Yrotation Xrotation
					JOINT left_shoulder
					{
						OFFSET 0.119239 0.015461 0.057728
						CHANNELS 3 Zrotation Yrotation Xrotation
						JOINT left_elbow
						{
							OFFSET 0.254123 0.042459 -0.072151
							CHANNELS 3 Zrotation Yrotation Xrotation
							JOINT left_wrist
							{
								OFFSET 0.251987 0.002472 0.023221
								CHANNELS 3 Zrotation Yrotation Xrotation
								JOINT left_index1
								{
									OFFSET 0.101902 -0.019351 -0.008688
									CHANNELS 3 Zrotation Yrotation Xrotation
									JOINT left_index2
									{
										OFFSET 0.031949 -0.003010 0.002218
										CHANNELS 3 Zrotation Yrotation Xrotation
										JOINT left_index3
										{
											OFFSET 0.022545 -0.000055 -0.002350
											CHANNELS 3 Zrotation Yrotation Xrotation
											End Site
											{
												OFFSET 0.000000 0.000000 0.000000
											}
										}
									}
								}
								JOINT left_middle1
								{
									OFFSET 0.109398 0.003981 -0.006328
									CHANNELS 3 Zrotation Yrotation Xrotation
									JOINT left_middle2
									{
										OFFSET 0.030611 0.004023 0.000807
										CHANNELS 3 Zrotation Yrotation Xrotation
										JOINT left_middle3
										{
											OFFSET 0.023515 0.004114 -0.002009
											CHANNELS 3 Zrotation Yrotation Xrotation
											End Site
											{
												OFFSET 0.000000 0.000000 0.000000
											}
										}
									}
								}
								JOINT left_pinky1
								{
									OFFSET 0.084047 0.043750 -0.014539
									CHANNELS 3 Zrotation Yrotation Xrotation
									JOINT left_pinky2
									{
										OFFSET 0.015471 0.011999 -0.001132
										CHANNELS 3 Zrotation Yrotation Xrotation
										JOINT left_pinky3
										{
											OFFSET 0.015533 0.011217 -0.001665
											CHANNELS 3 Zrotation Yrotation Xrotation
											End Site
											{
												OFFSET 0.000000 0.000000 0.000000
											}
										}
									}
								}
								JOINT left_ring1
								{
									OFFSET 0.097444 0.027345 -0.009268
									CHANNELS 3 Zrotation Yrotation Xrotation
									JOINT left_ring2
									{
										OFFSET 0.028047 0.005266 0.001485
										CHANNELS 3 Zrotation Yrotation Xrotation
										JOINT left_ring3
										{
											OFFSET 0.022822 0.007094 -0.001458
											CHANNELS 3 Zrotation Yrotation Xrotation
											End Site
											{
												OFFSET 0.000000 0.000000 0.000000
											}
										}
									}
								}
								JOINT left_thumb1
								{
									OFFSET 0.040636 -0.025611 -0.017977
									CHANNELS 3 Zrotation Yrotation Xrotation
									JOINT left_thumb2
									{
										OFFSET 0.017016 -0.024978 0.000976
										CHANNELS 3 Zrotation Yrotation Xrotation
										JOINT left_thumb3
										{
											OFFSET 0.020523 -0.015523 -0.005160
											CHANNELS 3 Zrotation Yrotation Xrotation
											End Site
											{
												OFFSET 0.000000 0.000000 0.000000
											}
										}
									}
								}
							}
						}
					}
				}
				JOINT right_collar
				{
					OFFSET -0.047695 0.013400 0.084339
					CHANNELS 3 Zrotation Yrotation Xrotation
					JOINT right_shoulder
					{
						OFFSET -0.102578 0.012669 0.053524
						CHANNELS 3 Zrotation Yrotation Xrotation
						JOINT right_elbow
						{
							OFFSET -0.271150 0.026467 -0.036492
							CHANNELS 3 Zrotation Yrotation Xrotation
							JOINT right_wrist
							{
								OFFSET -0.249267 0.015325 -0.004533
								CHANNELS 3 Zrotation Yrotation Xrotation
								JOINT right_index1
								{
									OFFSET -0.099880 -0.019600 -0.011783
									CHANNELS 3 Zrotation Yrotation Xrotation
									JOINT right_index2
									{
										OFFSET -0.031948 -0.003011 0.002218
										CHANNELS 3 Zrotation Yrotation Xrotation
										JOINT right_index3
										{
											OFFSET -0.022545 -0.000055 -0.002349
											CHANNELS 3 Zrotation Yrotation Xrotation
											End Site
											{
												OFFSET 0.000000 0.000000 0.000000
											}
										}
									}
								}
								JOINT right_middle1
								{
									OFFSET -0.107376 0.003734 -0.009422
									CHANNELS 3 Zrotation Yrotation Xrotation
									JOINT right_middle2
									{
										OFFSET -0.030611 0.004023 0.000807
										CHANNELS 3 Zrotation Yrotation Xrotation
										JOINT right_middle3
										{
											OFFSET -0.023515 0.004114 -0.002009
											CHANNELS 3 Zrotation Yrotation Xrotation
											End Site
											{
												OFFSET 0.000000 0.000000 0.000000
											}
										}
									}
								}
								JOINT right_pinky1
								{
									OFFSET -0.082027 0.043503 -0.017634
									CHANNELS 3 Zrotation Yrotation Xrotation
									JOINT right_pinky2
									{
										OFFSET -0.015471 0.011999 -0.001132
										CHANNELS 3 Zrotation Yrotation Xrotation
										JOINT right_pinky3
										{
											OFFSET -0.015533 0.011216 -0.001665
											CHANNELS 3 Zrotation Yrotation Xrotation
											End Site
											{
												OFFSET 0.000000 0.000000 0.000000
											}
										}
									}
								}
								JOINT right_ring1
								{
									OFFSET -0.095423 0.027099 -0.012362
									CHANNELS 3 Zrotation Yrotation Xrotation
									JOINT right_ring2
									{
										OFFSET -0.028047 0.005266 0.001485
										CHANNELS 3 Zrotation Yrotation Xrotation
										JOINT right_ring3
										{
											OFFSET -0.022822 0.007093 -0.001459
											CHANNELS 3 Zrotation Yrotation Xrotation
											End Site
											{
												OFFSET 0.000000 0.000000 0.000000
											}
										}
									}
								}
								JOINT right_thumb1
								{
									OFFSET -0.038613 -0.025861 -0.021074
									CHANNELS 3 Zrotation Yrotation Xrotation
									JOINT right_thumb2
									{
										OFFSET -0.017015 -0.024978 0.000976
										CHANNELS 3 Zrotation Yrotation Xrotation
										JOINT right_thumb3
										{
											OFFSET -0.020526 -0.015522 -0.005157
											CHANNELS 3 Zrotation Yrotation Xrotation
											End Site
											{
												OFFSET 0.000000 0.000000 0.000000
											}
										}
									}
								}
							}
						}
					}
				}
			}
		}
	}
}
MOTION
Frames: 4
Frame Time: 0.050000
0.000000 1.014462 0.000000 0.207687 -0.653116 -93.103887 -0.772068 0.841219 -3.496028 -1.521067 0.281879 13.643462 11.447205 -34.462962 -126.329449 0.000000 0.000000 0.000000 0.837450 -1.595337 -3.683805 0.763375 0.770501 14.948602 0.681277 -0.602363 0.603293 0.000000 0.000000 0.000000 -0.455983 0.603913 5.900323 -0.342189 5.689590 -14.959860 0.083070 -6.981497 17.835807 1.071683 0.058368 -7.346071 0.000000 0.000000 0.000000 -0.140506 8.186160 -0.416412 6.724631 59.611811 -5.484113 -12.288904 10.631680 -0.053425 4.734924 -0.057589 6.781742 -3.547559 31.215529 2.036560 -13.703289 61.744845 -10.016299 0.000000 0.000000 0.000000 -8.100971 43.305824 -9.625913 40.532379 62.162246 13.940786 0.000000 0.000000 0.000000 -17.854306 26.359214 -28.772101 61.480957 31.920529 0.799986 0.000000 0.000000 0.000000 -14.959343 49.919057 -17.635613 25.334048 60.468529 -5.091772 0.000000 0.000000 0.000000 19.819459 6.463652 13.994362 -13.042593 -5.227119 -6.008399 0.000000 0.000000 0.000000 -0.825517 -7.866284 -1.498540 -3.088935 -60.663111 -6.627700 8.728532 -6.842803 -1.092781 -4.773474 -1.717279 7.727976 4.985096 -31.618642 1.514832 20.237178 -72.280609 -17.782954 0.000000 0.000000 0.000000 9.061443 -45.201039 -10.841463 -47.833177 -65.155186 18.688694 0.000000 0.000000 0.000000 17.124739 -29.901460 -32.167182 -59.888467 -28.532406 -0.092156 0.000000 0.000000 0.000000 16.531766 -52.772552 -20.210861 -27.283392 -59.387115 -4.720893 0.000000 0.000000 0.000000 -18.593282 -6.284928 14.206928 12.561714 5.941682 -6.218737 0.000000 0.000000 0.000000 
0.000706 1.013502 -0.000491 0.573024 -0.644467 -93.205012 -0.953616 1.311633 -3.871575 -1.541215 0.425519 14.066642 10.302508 -35.266376 -126.231714 0.000000 0.000000 0.000000 0.667197 -1.124332 -3.202169 0.747233 0.885265 14.196052 0.909542 -0.775691 0.697371 0.000000 0.000000 0.000000 -0.488514 0.751139 5.892945 -0.416304 5.480460 -14.931874 0.206462 -7.130331 17.800003 1.153503 0.690844 -7.314613 0.000000 0.000000 0.000000 -2.007987 4.557188 0.688236 -7.797125 55.185699 -15.302428 -26.032756 11.050289 0.077565 1.570704 9.611716 -2.764157 -4.134826 28.958378 2.076124 -15.021613 53.989478 -6.970454 0.000000 0.000000 0.000000 -9.298452 41.259828 -8.928189 16.474069 54.825213 1.219715 0.000000 0.000000 0.000000 -20.076088 26.285609 -31.221730 43.158193 33.473844 -4.024838 0.000000 0.000000 0.000000 -15.597520 47.901162 -16.068189 7.004675 50.049909 -10.633478 0.000000 0.000000 0.000000 18.946591 5.418796 8.981231 -14.270999 -2.635883 -5.034915 0.000000 0.000000 0.000000 -0.917148 -6.947893 -1.390217 -3.086285 -59.525206 -6.459606 10.690898 -7.601526 -1.360517 -5.288180 -3.122243 10.532310 4.746999 -30.087424 1.299944 7.357846 -59.409883 -7.063071 0.000000 0.000000 0.000000 8.308670 -40.858714 -9.599587 -27.562229 -55.974447 3.277352 0.000000 0.000000 0.000000 16.787977 -25.452937 -26.891599 -47.717953 -31.083217 -5.274134 0.000000 0.000000 0.000000 12.987349 -46.905598 -16.234635 -17.451680 -50.111167 -9.708760 0.000000 0.000000 0.000000 -19.116898 -6.540585 15.910798 14.219242 6.551799 -6.627382 0.000000 0.000000 0.000000 
0.002311 1.012393 -0.000882 0.911127 -0.630060 -93.293474 -1.120940 1.728259 -4.224125 -1.574737 0.566920 14.596810 9.295737 -35.987185 -126.219675 0.000000 0.000000 0.000000 0.496122 -0.667174 -2.659831 0.721036 0.979829 13.339372 1.148325 -0.960129 0.806654 0.000000 0.000000 0.000000 -0.522325 0.899555 5.885616 -0.487794 5.280042 -14.905401 0.321028 -7.268528 17.767186 1.227319 1.260032 -7.284714 0.000000 0.000000 0.000000 -3.617323 1.250640 1.727178 -16.586635 49.450817 -20.022665 -38.967468 9.593077 0.838093 -4.477533 17.491131 -11.618722 -4.544863 27.588180 2.043966 -15.712411 48.053414 -4.596003 0.000000 0.000000 0.000000 -9.947199 39.950075 -8.417360 6.357202 47.403853 -2.312074 0.000000 0.000000 0.000000 -21.105190 26.288355 -32.358334 31.884153 30.865415 -7.283149 0.000000 0.000000 0.000000 -15.656674 46.478485 -14.757955 0.029849 41.539040 -10.488594 0.000000 0.000000 0.000000 17.932894 4.490389 4.993176 -15.110313 -0.272302 -4.052312 0.000000 0.000000 0.000000 -0.994851 -6.124484 -1.298259 -3.220061 -58.469843 -6.214078 12.662443 -8.494382 -1.679213 -5.802786 -4.117485 12.636873 4.626794 -28.611970 1.138304 3.578362 -49.561236 -4.252534 0.000000 0.000000 0.000000 7.896665 -37.045130 -8.529459 -18.596842 -47.428142 -1.935629 0.000000 0.000000 0.000000 16.836485 -21.737880 -22.429823 -37.333167 -30.710038 -8.980827 0.000000 0.000000 0.000000 10.901937 -41.732121 -13.348591 -11.907028 -42.238547 -10.880880 0.000000 0.000000 0.000000 -19.588127 -6.740162 17.210308 15.693974 7.047492 -6.961404 0.000000 0.000000 0.000000 
0.004274 1.011263 -0.001118 1.218547 -0.611948 -93.375376 -1.273584 2.120251 -4.516334 -1.610377 0.704668 15.142405 8.366790 -36.659173 -126.236244 0.000000 0.000000 0.000000 0.343196 -0.228261 -2.202880 0.693692 1.052885 12.548956 1.376104 -1.131442 0.897931 0.000000 0.000000 0.000000 -0.554721 1.039014 5.883582 -0.553558 5.094767 -14.878830 0.431176 -7.398902 17.735666 1.296176 1.789417 -7.256415 0.000000 0.000000 0.000000 -5.054882 -1.845235 2.726721 -22.327103 43.353899 -22.001048 -51.272705 7.425921 2.306863 -12.995681 23.553756 -21.032725 -4.949950 26.697630 2.003934 -16.197998 43.647324 -2.742177 0.000000 0.000000 0.000000 -10.313158 39.245827 -7.995862 1.209144 41.339699 -3.143570 0.000000 0.000000 0.000000 -21.404245 26.875007 -33.059986 24.614784 27.477703 -8.788352 0.000000 0.000000 0.000000 -15.522984 45.717749 -13.662990 -3.457469 34.963685 -9.356456 0.000000 0.000000 0.000000 16.410850 3.414486 1.518360 -15.437358 2.063191 -2.887545 0.000000 0.000000 0.000000 -1.061548 -5.366030 -1.217248 -3.448006 -57.479948 -5.919911 14.416260 -9.448219 -2.020147 -6.333648 -4.921532 14.449427 4.570067 -27.235709 1.000799 1.835093 -41.452749 -2.956594 0.000000 0.000000 0.000000 7.666285 -33.608739 -7.590971 -13.742115 -40.070383 -3.764131 0.000000 0.000000 0.000000 17.030144 -18.465190 -18.470130 -29.338901 -28.771294 -10.992105 0.000000 0.000000 0.000000 9.582680 -37.072997 -11.086456 -8.434741 -35.595451 -10.560031 0.000000 0.000000 0.000000 -20.027536 -6.920876 18.335795 17.041319 7.483852 -7.251427 0.000000 0.000000 0.000000 
